<svg width="102" height="12" viewBox="0 0 102 12" fill="none" xmlns="http://www.w3.org/2000/svg">
<path d="M6.86843 4.14418C6.81209 3.93537 6.72923 3.75142 6.61985 3.59233C6.51048 3.42992 6.37624 3.29238 6.21715 3.17969C6.05806 3.067 5.87577 2.98248 5.67028 2.92614C5.46478 2.86648 5.23941 2.83665 4.99414 2.83665C4.5003 2.83665 4.07274 2.95597 3.71147 3.1946C3.35352 3.43324 3.07676 3.78125 2.88121 4.23864C2.68567 4.69271 2.58789 5.24455 2.58789 5.89418C2.58789 6.54711 2.68235 7.10393 2.87127 7.56463C3.06019 8.02533 3.33363 8.37666 3.69158 8.61861C4.04954 8.86056 4.48372 8.98153 4.99414 8.98153C5.4449 8.98153 5.82605 8.90862 6.13761 8.76278C6.45247 8.61364 6.69111 8.40317 6.85352 8.13139C7.01592 7.85961 7.09712 7.53977 7.09712 7.17188L7.55451 7.22656H5.07866V5.43182H9.46857V6.77912C9.46857 7.69058 9.27468 8.47112 8.8869 9.12074C8.50243 9.77036 7.97212 10.2692 7.29599 10.6172C6.62317 10.9652 5.84925 11.1392 4.97425 11.1392C4.00314 11.1392 3.14968 10.9287 2.41389 10.5078C1.67809 10.0869 1.1047 9.48698 0.693715 8.7081C0.28273 7.9259 0.0772372 6.99787 0.0772372 5.92401C0.0772372 5.08878 0.201527 4.34801 0.450107 3.7017C0.698686 3.05208 1.04504 2.50189 1.48917 2.05114C1.93661 1.60038 2.45366 1.259 3.04031 1.02699C3.63027 0.794981 4.26497 0.678977 4.94442 0.678977C5.53439 0.678977 6.08292 0.763494 6.59002 0.932528C7.10044 1.10156 7.5512 1.3402 7.94229 1.64844C8.33671 1.95668 8.65655 2.32292 8.90181 2.74716C9.14708 3.1714 9.29954 3.63707 9.3592 4.14418H6.86843ZM13.38 0.818182V11H10.919V0.818182H13.38ZM24.1671 4.5071H21.6813C21.6481 4.25189 21.5802 4.02154 21.4775 3.81605C21.3747 3.61056 21.2388 3.4349 21.0698 3.28906C20.9007 3.14323 20.7002 3.0322 20.4682 2.95597C20.2395 2.87642 19.986 2.83665 19.7076 2.83665C19.2137 2.83665 18.7878 2.95762 18.4299 3.19957C18.0752 3.44152 17.8018 3.79119 17.6096 4.24858C17.4206 4.70597 17.3262 5.25947 17.3262 5.90909C17.3262 6.58523 17.4223 7.15199 17.6145 7.60938C17.8101 8.06345 18.0835 8.40649 18.4348 8.63849C18.7895 8.86719 19.2087 8.98153 19.6926 8.98153C19.9644 8.98153 20.2114 8.94673 20.4334 8.87713C20.6588 8.80753 20.856 8.70644 21.025 8.57386C21.1974 8.43797 21.3382 8.27391 21.4476 8.08168C21.5603 7.88613 21.6382 7.66572 21.6813 7.42045L24.1671 7.43537C24.124 7.88613 23.9931 8.33026 23.7743 8.76776C23.5589 9.20526 23.2623 9.60464 22.8844 9.96591C22.5066 10.3239 22.0459 10.6089 21.5023 10.821C20.9621 11.0331 20.3423 11.1392 19.6429 11.1392C18.7215 11.1392 17.8962 10.937 17.1671 10.5327C16.4412 10.125 15.8678 9.53172 15.4469 8.75284C15.026 7.97396 14.8155 7.02604 14.8155 5.90909C14.8155 4.78883 15.0293 3.83925 15.4569 3.06037C15.8844 2.28149 16.4628 1.68987 17.1919 1.28551C17.9211 0.881155 18.7381 0.678977 19.6429 0.678977C20.2594 0.678977 20.8295 0.765151 21.3532 0.9375C21.8768 1.10653 22.3375 1.35511 22.7353 1.68324C23.133 2.00805 23.4561 2.40743 23.7047 2.88139C23.9533 3.35535 24.1074 3.89725 24.1671 4.5071ZM31.0788 3.87074C31.0457 3.50615 30.8982 3.22277 30.6364 3.0206C30.3778 2.8151 30.0083 2.71236 29.5277 2.71236C29.2095 2.71236 28.9444 2.75379 28.7322 2.83665C28.5201 2.91951 28.361 3.03385 28.255 3.17969C28.1489 3.32221 28.0942 3.48627 28.0909 3.67188C28.0843 3.82434 28.1141 3.95857 28.1804 4.07457C28.25 4.19058 28.3494 4.29332 28.4787 4.38281C28.6113 4.46899 28.7704 4.54522 28.956 4.61151C29.1416 4.67779 29.3504 4.7358 29.5824 4.78551L30.4574 4.98438C30.9612 5.09375 31.4053 5.23958 31.7898 5.42188C32.1776 5.60417 32.5024 5.82126 32.7642 6.07315C33.0294 6.32505 33.2299 6.61506 33.3658 6.94318C33.5017 7.27131 33.5713 7.6392 33.5746 8.04688C33.5713 8.68987 33.4089 9.24171 33.0874 9.70241C32.7659 10.1631 32.3035 10.5161 31.7003 10.7614C31.1004 11.0066 30.3762 11.1293 29.5277 11.1293C28.6759 11.1293 27.9335 11.0017 27.3004 10.7464C26.6674 10.4912 26.1752 10.1035 25.8239 9.5831C25.4725 9.06274 25.2919 8.40483 25.282 7.60938H27.6385C27.6584 7.9375 27.7462 8.21094 27.902 8.42969C28.0578 8.64844 28.2715 8.81416 28.5433 8.92685C28.8184 9.03954 29.1366 9.09588 29.4979 9.09588C29.8293 9.09588 30.111 9.05114 30.343 8.96165C30.5784 8.87216 30.759 8.74787 30.8849 8.58878C31.0109 8.42969 31.0755 8.2474 31.0788 8.0419C31.0755 7.84967 31.0159 7.68561 30.8999 7.54972C30.7839 7.41051 30.6049 7.29119 30.3629 7.19176C30.1243 7.08902 29.8194 6.99455 29.4482 6.90838L28.3842 6.6598C27.5026 6.45762 26.8082 6.13116 26.3011 5.6804C25.794 5.22633 25.5421 4.61316 25.5455 3.84091C25.5421 3.21117 25.7112 2.65933 26.0526 2.18537C26.3939 1.71141 26.8662 1.34186 27.4695 1.0767C28.0727 0.811553 28.7604 0.678977 29.5327 0.678977C30.3215 0.678977 31.0059 0.81321 31.5859 1.08168C32.1693 1.34683 32.6217 1.7197 32.9432 2.20028C33.2647 2.68087 33.4287 3.23769 33.4354 3.87074H31.0788ZM34.8175 0.818182H37.8651L40.4503 7.12216H40.5696L43.1548 0.818182H46.2024V11H43.8061V4.74574H43.7216L41.2756 10.9354H39.7443L37.2983 4.71094H37.2138V11H34.8175V0.818182ZM49.9398 11H47.2949L50.7303 0.818182H54.0066L57.4419 11H54.7971L52.4057 3.38352H52.3262L49.9398 11ZM49.5868 6.9929H55.1152V8.86222H49.5868V6.9929ZM58.5382 11V0.818182H62.7441C63.5065 0.818182 64.1644 0.955729 64.7179 1.23082C65.2747 1.5026 65.7039 1.8937 66.0055 2.40412C66.3071 2.91122 66.4579 3.51278 66.4579 4.20881C66.4579 4.91477 66.3038 5.51468 65.9956 6.00852C65.6873 6.49905 65.2498 6.87358 64.6831 7.1321C64.1163 7.38731 63.4451 7.51491 62.6696 7.51491H60.0098V5.57599H62.2122C62.5834 5.57599 62.8933 5.52794 63.1419 5.43182C63.3938 5.33239 63.5843 5.18324 63.7136 4.98438C63.8429 4.7822 63.9075 4.52367 63.9075 4.20881C63.9075 3.89394 63.8429 3.63376 63.7136 3.42827C63.5843 3.21946 63.3938 3.06368 63.1419 2.96094C62.89 2.85488 62.5801 2.80185 62.2122 2.80185H60.9991V11H58.5382ZM64.2704 6.34659L66.8059 11H64.1213L61.6355 6.34659H64.2704ZM67.4746 2.81676V0.818182H76.0804V2.81676H72.9931V11H70.5669V2.81676H67.4746ZM82.9151 0.818182V11H81.6822V0.818182H82.9151ZM88.5293 11H85.3873V0.818182H88.6685C89.6562 0.818182 90.5014 1.02202 91.204 1.42969C91.9067 1.83404 92.4453 2.41572 92.8198 3.17472C93.1943 3.9304 93.3816 4.83523 93.3816 5.8892C93.3816 6.94981 93.1926 7.86293 92.8148 8.62855C92.437 9.39086 91.8868 9.97751 91.1642 10.3885C90.4417 10.7962 89.5634 11 88.5293 11ZM86.6202 9.90625H88.4498C89.2916 9.90625 89.9893 9.74384 90.5428 9.41903C91.0963 9.09422 91.5089 8.63187 91.7807 8.03196C92.0525 7.43205 92.1884 6.7178 92.1884 5.8892C92.1884 5.06723 92.0542 4.35961 91.7857 3.76633C91.5172 3.16974 91.1162 2.71236 90.5826 2.39418C90.0489 2.07268 89.3844 1.91193 88.589 1.91193H86.6202V9.90625ZM95.4498 11V0.818182H101.595V1.91193H96.6827V5.35227H101.276V6.44602H96.6827V9.90625H101.674V11H95.4498Z" fill="black"/>
</svg>
