<svg width="139" height="15" viewBox="0 0 139 15" fill="none" xmlns="http://www.w3.org/2000/svg">
<path d="M10.1072 4.69567C10.0307 4.41229 9.91824 4.16264 9.7698 3.94673C9.62136 3.72633 9.43919 3.53965 9.22328 3.38672C9.00737 3.23378 8.75997 3.11908 8.48109 3.04261C8.20221 2.96165 7.89634 2.92116 7.56348 2.92116C6.89326 2.92116 6.313 3.0831 5.82271 3.40696C5.33691 3.73082 4.96132 4.20312 4.69593 4.82386C4.43055 5.4401 4.29785 6.18904 4.29785 7.07067C4.29785 7.95679 4.42605 8.71248 4.68244 9.33771C4.93883 9.96295 5.30993 10.4397 5.79572 10.7681C6.28152 11.0965 6.87077 11.2607 7.56348 11.2607C8.17522 11.2607 8.6925 11.1617 9.11532 10.9638C9.54264 10.7614 9.86651 10.4757 10.0869 10.1069C10.3073 9.73804 10.4175 9.30398 10.4175 8.80469L11.0383 8.87891H7.67818V6.44318H13.6359V8.27166C13.6359 9.50864 13.3728 10.5679 12.8465 11.4496C12.3247 12.3312 11.605 13.0082 10.6874 13.4805C9.7743 13.9528 8.72399 14.1889 7.53649 14.1889C6.21854 14.1889 5.06028 13.9033 4.0617 13.332C3.06312 12.7608 2.28495 11.9466 1.72718 10.8896C1.16942 9.82801 0.890536 8.56854 0.890536 7.11115C0.890536 5.97763 1.05922 4.9723 1.39657 4.09517C1.73393 3.21354 2.20398 2.46686 2.80673 1.85511C3.41397 1.24337 4.11568 0.780066 4.91184 0.465198C5.71251 0.150331 6.57389 -0.00710279 7.49601 -0.00710279C8.29667 -0.00710279 9.0411 0.107599 9.72932 0.337003C10.422 0.566406 11.0338 0.89027 11.5645 1.30859C12.0998 1.72692 12.5339 2.22396 12.8667 2.79972C13.1996 3.37547 13.4065 4.00746 13.4875 4.69567H10.1072ZM18.9442 0.181818V14H15.6044V0.181818H18.9442ZM33.5839 5.18821H30.2103C30.1653 4.84186 30.0731 4.52924 29.9337 4.25035C29.7942 3.97147 29.6098 3.73307 29.3804 3.53516C29.151 3.33724 28.8789 3.18655 28.564 3.0831C28.2536 2.97514 27.9095 2.92116 27.5317 2.92116C26.8615 2.92116 26.2835 3.08535 25.7977 3.41371C25.3164 3.74207 24.9453 4.21662 24.6844 4.83736C24.428 5.4581 24.2998 6.20928 24.2998 7.09091C24.2998 8.00852 24.4302 8.7777 24.6911 9.39844C24.9565 10.0147 25.3276 10.4802 25.8044 10.7951C26.2857 11.1055 26.8547 11.2607 27.5115 11.2607C27.8803 11.2607 28.2154 11.2134 28.5168 11.119C28.8227 11.0245 29.0903 10.8873 29.3197 10.7074C29.5536 10.523 29.7448 10.3003 29.8932 10.0394C30.0461 9.77403 30.1518 9.47491 30.2103 9.14205L33.5839 9.16229C33.5254 9.77403 33.3477 10.3768 33.0509 10.9705C32.7585 11.5643 32.3559 12.1063 31.8431 12.5966C31.3303 13.0824 30.7051 13.4692 29.9674 13.7571C29.2342 14.045 28.3931 14.1889 27.444 14.1889C26.1935 14.1889 25.0735 13.9145 24.0839 13.3658C23.0988 12.8125 22.3206 12.0073 21.7494 10.9503C21.1781 9.89323 20.8925 8.60677 20.8925 7.09091C20.8925 5.57055 21.1826 4.28184 21.7629 3.22479C22.3431 2.16773 23.128 1.36482 24.1176 0.816051C25.1072 0.267282 26.216 -0.00710279 27.444 -0.00710279C28.2806 -0.00710279 29.0543 0.109848 29.765 0.34375C30.4757 0.573153 31.1009 0.910511 31.6407 1.35582C32.1805 1.79664 32.6191 2.33866 32.9564 2.98189C33.2938 3.62512 33.5029 4.36056 33.5839 5.18821ZM42.9641 4.32457C42.9192 3.82978 42.719 3.44519 42.3636 3.17081C42.0128 2.89193 41.5112 2.75249 40.859 2.75249C40.4272 2.75249 40.0674 2.80871 39.7795 2.92116C39.4916 3.03362 39.2757 3.1888 39.1317 3.38672C38.9878 3.58014 38.9136 3.80279 38.9091 4.05469C38.9001 4.2616 38.9406 4.44377 39.0305 4.60121C39.125 4.75864 39.2599 4.89808 39.4354 5.01953C39.6153 5.13648 39.8312 5.23994 40.0831 5.3299C40.335 5.41986 40.6184 5.49858 40.9332 5.56605L42.1207 5.83594C42.8045 5.98438 43.4072 6.18229 43.929 6.42969C44.4553 6.67708 44.8961 6.97171 45.2514 7.31357C45.6113 7.65542 45.8834 8.04901 46.0678 8.49432C46.2522 8.93963 46.3467 9.43892 46.3512 9.99219C46.3467 10.8648 46.1263 11.6138 45.69 12.239C45.2537 12.8642 44.6262 13.3433 43.8075 13.6761C42.9934 14.009 42.0105 14.1754 40.859 14.1754C39.703 14.1754 38.6954 14.0022 37.8363 13.6559C36.9772 13.3095 36.3092 12.7833 35.8324 12.0771C35.3556 11.3709 35.1104 10.478 35.0969 9.39844H38.2951C38.3221 9.84375 38.4413 10.2148 38.6527 10.5117C38.8641 10.8086 39.1542 11.0335 39.5231 11.1864C39.8964 11.3394 40.3282 11.4158 40.8185 11.4158C41.2683 11.4158 41.6507 11.3551 41.9656 11.2337C42.2849 11.1122 42.5301 10.9435 42.701 10.7276C42.8719 10.5117 42.9596 10.2643 42.9641 9.98544C42.9596 9.72455 42.8787 9.50189 42.7212 9.31747C42.5638 9.12855 42.3209 8.96662 41.9925 8.83168C41.6687 8.69223 41.2549 8.56404 40.7511 8.44709L39.3072 8.10973C38.1107 7.83535 37.1683 7.39228 36.4801 6.78054C35.7919 6.1643 35.45 5.33215 35.4545 4.28409C35.45 3.42945 35.6795 2.68052 36.1428 2.03729C36.6061 1.39406 37.247 0.892519 38.0657 0.532671C38.8844 0.172822 39.8177 -0.00710279 40.8658 -0.00710279C41.9363 -0.00710279 42.8652 0.17507 43.6523 0.539417C44.444 0.899266 45.058 1.4053 45.4943 2.05753C45.9306 2.70975 46.1533 3.46543 46.1623 4.32457H42.9641ZM48.038 0.181818H52.174L55.6825 8.73722H55.8445L59.353 0.181818H63.489V14H60.2369V5.51207H60.1222L56.8026 13.9123H54.7244L51.4048 5.46484H51.2901V14H48.038V0.181818ZM68.5612 14H64.9717L69.634 0.181818H74.0803L78.7426 14H75.1531L71.9078 3.66335H71.7998L68.5612 14ZM68.0821 8.56179H75.585V11.0987H68.0821V8.56179ZM80.2304 14V0.181818H85.9385C86.973 0.181818 87.8659 0.368489 88.6171 0.741832C89.3728 1.11068 89.9553 1.64145 90.3646 2.33416C90.7739 3.02237 90.9786 3.83878 90.9786 4.78338C90.9786 5.74148 90.7694 6.55563 90.3511 7.22585C89.9328 7.89157 89.339 8.39986 88.5699 8.75071C87.8007 9.09706 86.8898 9.27024 85.8373 9.27024H82.2275V6.63885H85.2165C85.7203 6.63885 86.1409 6.57363 86.4782 6.44318C86.8201 6.30824 87.0787 6.10582 87.2542 5.83594C87.4296 5.56155 87.5173 5.2107 87.5173 4.78338C87.5173 4.35606 87.4296 4.00296 87.2542 3.72408C87.0787 3.4407 86.8201 3.22928 86.4782 3.08984C86.1364 2.9459 85.7158 2.87393 85.2165 2.87393H83.5702V14H80.2304ZM88.0099 7.68466L91.4509 14H87.8074L84.4339 7.68466H88.0099ZM92.3584 2.89418V0.181818H104.038V2.89418H99.8477V14H96.5551V2.89418H92.3584ZM113.313 0.181818V14H111.64V0.181818H113.313ZM120.933 14H116.668V0.181818H121.122C122.462 0.181818 123.609 0.458451 124.563 1.01172C125.516 1.56049 126.247 2.3499 126.755 3.37997C127.264 4.40554 127.518 5.63352 127.518 7.06392C127.518 8.50331 127.261 9.74254 126.749 10.7816C126.236 11.8162 125.489 12.6123 124.509 13.1701C123.528 13.7234 122.336 14 120.933 14ZM118.342 12.5156H120.825C121.967 12.5156 122.914 12.2952 123.665 11.8544C124.416 11.4136 124.976 10.7861 125.345 9.97195C125.714 9.15779 125.899 8.18845 125.899 7.06392C125.899 5.94839 125.716 4.98804 125.352 4.18288C124.988 3.37322 124.443 2.75249 123.719 2.32067C122.995 1.88435 122.093 1.66619 121.014 1.66619H118.342V12.5156ZM130.325 14V0.181818H138.664V1.66619H131.998V6.33523H138.232V7.8196H131.998V12.5156H138.772V14H130.325Z" fill="black"/>
</svg>
